<?xml version="1.0" encoding="utf-8"?>
<!-- Generator: Adobe Illustrator 21.1.0, SVG Export Plug-In . SVG Version: 6.00 Build 0)  -->
<svg version="1.1" xmlns="http://www.w3.org/2000/svg" xmlns:xlink="http://www.w3.org/1999/xlink" x="0px" y="0px"
	 viewBox="0 0 719.1 1180.2" style="enable-background:new 0 0 719.1 1180.2;" xml:space="preserve">
<style type="text/css">
	.st0{display:none;}
	.st1{display:inline;fill:#161616;}
	.st2{fill:#F16529;}
	.st3{fill:none;stroke:#E44D26;stroke-width:14;stroke-miterlimit:10;}
	.st4{fill:#FFFFFF;}
	.st5{font-family:'MasterOfBreak';}
	.st6{font-size:300px;}
</style>
<g id="Layer_2" class="st0">
	<rect x="-16.5" y="-18.7" class="st1" width="768" height="1214.9"/>
</g>
<g id="Layer_1">
	<g id="XMLID_1_">
		<path class="st2" d="M159.9,140.1c133.2,0,266.2,0,399.3,0c79.9,299.9-79.8,599.4,0,900c-4.2-2.7-7.9-5-11.6-7.4
			c-39.2-25.9-76.6-51.9-112.6-77.9c-33-23.8-64.8-47.7-95.5-71.6c-1.7-1.4-2.9-1.6-4.6-0.2c-27.1,22.3-53.3,44.6-78.6,66.8
			c-30.5,26.9-59.6,53.7-86.7,80.5c-3.2,3.1-6.3,6.3-9.7,9.9C80,739.5,239.7,440.1,159.9,140.1z"/>
		<path class="st3" d="M159.9,140.1c133.2,0,266.2,0,399.3,0c79.9,299.9-79.8,599.4,0,900c-4.2-2.7-7.9-5-11.6-7.4
			c-39.2-25.9-76.6-51.9-112.6-77.9c-33-23.8-64.8-47.7-95.5-71.6c-1.7-1.4-2.9-1.6-4.6-0.2c-27.1,22.3-53.3,44.6-78.6,66.8
			c-30.5,26.9-59.6,53.7-86.7,80.5c-3.2,3.1-6.3,6.3-9.7,9.9C80,739.5,239.7,440.1,159.9,140.1z"/>
	</g>
	<text transform="matrix(1 0 0 1 268.6254 665.3136)" class="st4 st5 st6">5</text>
	<g>
		<g>
			<path class="st4" d="M199.8,313.6c0-7.3,0-14.7,0-22c2,0,3.9,0,5.9,0c0-18,0-35.9,0-53.9c-2,0-3.9,0-5.9,0c0-7.4,0-14.7,0-22.1
				c12.9,0,25.8,0,38.6,0c0,7.4,0,14.7,0,22.1c-2,0-3.9,0-5.9,0c0,4.5,0,9,0,13.4c6.4,0,12.8,0,19.2,0c0-4.5,0-9,0-13.4
				c-2,0-4,0-6,0c0-7.4,0-14.7,0-22.1c12.9,0,25.9,0,38.8,0c0,7.4,0,14.7,0,22.1c-1.9,0-3.8,0-5.7,0c0,18,0,35.9,0,53.9
				c1.9,0,3.8,0,5.7,0c0,7.3,0,14.7,0,22c-12.9,0-25.9,0-38.8,0c0-7.3,0-14.7,0-22c2,0,4,0,6,0c0-5.5,0-10.9,0-16.4
				c-6.4,0-12.8,0-19.2,0c0,5.5,0,10.9,0,16.4c2,0,3.9,0,5.9,0c0,7.3,0,14.7,0,22C225.5,313.6,212.6,313.6,199.8,313.6z M236,311.2
				c0-5.8,0-11.6,0-17.4c-2,0-3.9,0-5.9,0c0-7,0-14,0-21c8,0,16,0,23.9,0c0,7,0,14,0,21c-2,0-3.9,0-5.9,0c0,5.8,0,11.6,0,17.4
				c11.3,0,22.7,0,34,0c0-5.8,0-11.6,0-17.4c-2,0-4,0-6,0c0-19.5,0-39,0-58.5c2,0,4,0,6,0c0-5.8,0-11.6,0-17.4c-11.3,0-22.7,0-34,0
				c0,5.8,0,11.6,0,17.4c2,0,3.9,0,5.9,0c0,6.1,0,12.1,0,18.2c-8,0-16,0-23.9,0c0-6.1,0-12.1,0-18.2c2,0,3.9,0,5.9,0
				c0-5.8,0-11.6,0-17.4c-11.3,0-22.6,0-33.9,0c0,5.8,0,11.6,0,17.4c1.9,0,3.8,0,5.7,0c0,19.5,0,39,0,58.5c-1.9,0-3.8,0-5.7,0
				c0,5.8,0,11.6,0,17.4C213.4,311.2,224.7,311.2,236,311.2z M205.2,308.1c0-3.7,0-7.5,0-11.2c1.9,0,3.8,0,5.7,0
				c0-21.6,0-43.1,0-64.7c-1.9,0-3.8,0-5.7,0c0-3.7,0-7.5,0-11.2c9.3,0,18.6,0,27.9,0c0,3.7,0,7.5,0,11.2c-2,0-3.9,0-5.9,0
				c0,8.1,0,16.1,0,24.2c9.9,0,19.9,0,29.8,0c0-8.1,0-16.1,0-24.2c-2,0-3.9,0-5.9,0c0-3.7,0-7.5,0-11.2c9.3,0,18.7,0,28,0
				c0,3.7,0,7.5,0,11.2c-2,0-3.9,0-5.9,0c0,21.6,0,43.1,0,64.7c2,0,3.9,0,5.9,0c0,3.7,0,7.5,0,11.2c-9.3,0-18.7,0-28,0
				c0-3.7,0-7.5,0-11.2c2,0,3.9,0,5.9,0c0-9.1,0-18.1,0-27.2c-9.9,0-19.9,0-29.8,0c0,9.1,0,18.1,0,27.2c2,0,3.9,0,5.9,0
				c0,3.7,0,7.5,0,11.2C223.8,308.1,214.5,308.1,205.2,308.1z"/>
			<path class="st4" d="M290.2,243.5c0-9.3,0-18.6,0-27.9c27.6,0,55.2,0,82.7,0c0,9.3,0,18.6,0,27.9c-7.4,0-14.7,0-22.1,0
				c0-1.9,0-3.8,0-5.7c-1.9,0-3.8,0-5.7,0c0,18,0,35.9,0,53.9c1.9,0,3.8,0,5.7,0c0,7.3,0,14.7,0,22c-12.9,0-25.8,0-38.6,0
				c0-7.3,0-14.7,0-22c2,0,3.9,0,5.9,0c0-18,0-35.9,0-53.9c-2,0-3.9,0-5.9,0c0,1.9,0,3.8,0,5.7C304.9,243.5,297.5,243.5,290.2,243.5
				z M309.8,241.2c0-2,0-3.9,0-5.9c3.5,0,7.1,0,10.6,0c0,19.5,0,39,0,58.5c-2,0-3.9,0-5.9,0c0,5.8,0,11.6,0,17.4c11.3,0,22.7,0,34,0
				c0-5.8,0-11.6,0-17.4c-2,0-3.9,0-5.9,0c0-19.5,0-39,0-58.5c3.5,0,7.1,0,10.6,0c0,2,0,3.9,0,5.9c5.7,0,11.5,0,17.2,0
				c0-7.7,0-15.5,0-23.2c-26,0-52,0-78,0c0,7.7,0,15.5,0,23.2C298.3,241.2,304.1,241.2,309.8,241.2z M295.7,238.1
				c0-5.7,0-11.4,0-17.1c24,0,48,0,72,0c0,5.7,0,11.4,0,17.1c-3.8,0-7.6,0-11.3,0c0-2,0-3.9,0-5.9c-5.5,0-11,0-16.5,0
				c0,21.6,0,43.1,0,64.7c1.9,0,3.8,0,5.7,0c0,3.7,0,7.5,0,11.2c-9.3,0-18.6,0-27.9,0c0-3.7,0-7.5,0-11.2c2,0,3.9,0,5.9,0
				c0-21.6,0-43.1,0-64.7c-5.6,0-11.2,0-16.8,0c0,2,0,3.9,0,5.9C303,238.1,299.3,238.1,295.7,238.1z"/>
			<path class="st4" d="M377.7,313.6c0-7.3,0-14.7,0-22c2,0,3.9,0,5.9,0c0-18,0-35.9,0-53.9c-2,0-3.9,0-5.9,0c0-7.4,0-14.7,0-22.1
				c10.5,0,20.9,0,31.4,0c7.6,12.6,15.2,25.3,22.8,37.9c7.6-12.6,15.1-25.3,22.7-37.9c10.5,0,21,0,31.5,0c0,7.4,0,14.7,0,22.1
				c-2,0-3.9,0-5.9,0c0,18,0,35.9,0,53.9c2,0,3.9,0,5.9,0c0,7.3,0,14.7,0,22c-12.9,0-25.8,0-38.6,0c0-7.3,0-14.7,0-22
				c1.9,0,3.8,0,5.7,0c0-8.5,0-17,0-25.5c-7.1,11.8-14.2,23.6-21.3,35.4c-7.1-11.8-14.3-23.6-21.4-35.4c0,8.5,0,17,0,25.5
				c2,0,3.9,0,5.9,0c0,7.3,0,14.7,0,22C403.5,313.6,390.6,313.6,377.7,313.6z M414,311.2c0-5.8,0-11.6,0-17.4c-2,0-3.9,0-5.9,0
				c0-11.8,0-23.6,0-35.4c7.9,13.3,15.9,26.6,23.8,39.9c7.9-13.8,15.8-27.5,23.7-41.3c0,12.3,0,24.5,0,36.8c-2,0-3.9,0-5.9,0
				c0,5.8,0,11.6,0,17.4c11.3,0,22.7,0,34,0c0-5.8,0-11.6,0-17.4c-2,0-3.9,0-5.9,0c0-19.5,0-39,0-58.5c2,0,3.9,0,5.9,0
				c0-5.8,0-11.6,0-17.4c-9.5,0-19,0-28.6,0c-7.7,13-15.5,25.9-23.2,38.9c-7.8-13-15.6-25.9-23.4-38.9c-9.5,0-18.9,0-28.4,0
				c0,5.8,0,11.6,0,17.4c1.9,0,3.8,0,5.7,0c0,19.5,0,39,0,58.5c-1.9,0-3.8,0-5.7,0c0,5.8,0,11.6,0,17.4
				C391.4,311.2,402.7,311.2,414,311.2z M383.2,308.1c0-3.7,0-7.5,0-11.2c1.9,0,3.8,0,5.7,0c0-21.6,0-43.1,0-64.7
				c-1.9,0-3.8,0-5.7,0c0-3.7,0-7.5,0-11.2c7.2,0,14.5,0,21.7,0c9,14.9,18,29.9,27,44.8c9-14.9,17.9-29.9,26.9-44.8
				c7.3,0,14.7,0,22,0c0,3.7,0,7.5,0,11.2c-2,0-4,0-6,0c0,21.6,0,43.1,0,64.7c2,0,4,0,6,0c0,3.7,0,7.5,0,11.2c-9.3,0-18.7,0-28,0
				c0-3.7,0-7.5,0-11.2c2,0,3.9,0,5.9,0c0-16.4,0-32.9,0-49.3c-8.9,14.9-17.8,29.8-26.7,44.7c-8.9-14.9-17.8-29.8-26.7-44.7
				c0,16.4,0,32.9,0,49.3c2,0,3.9,0,5.9,0c0,3.7,0,7.5,0,11.2C401.7,308.1,392.4,308.1,383.2,308.1z"/>
			<path class="st4" d="M492.6,313.6c0-7.3,0-14.7,0-22c2,0,3.9,0,5.9,0c0-18,0-35.9,0-53.9c-2,0-3.9,0-5.9,0c0-7.4,0-14.7,0-22.1
				c12.9,0,25.8,0,38.6,0c0,7.4,0,14.7,0,22.1c-2,0-3.9,0-5.9,0c0,18,0,35.9,0,53.9c5.9,0,11.8,0,17.6,0c0-2,0-3.9,0-5.9
				c7.4,0,14.7,0,22.1,0c0,9.3,0,18.6,0,27.9C541,313.6,516.8,313.6,492.6,313.6z M562.8,311.2c0-7.7,0-15.3,0-23
				c-5.8,0-11.6,0-17.4,0c0,1.9,0,3.8,0,5.7c-7.5,0-15,0-22.5,0c0-19.6,0-39.1,0-58.7c2,0,4,0,6,0c0-5.8,0-11.6,0-17.4
				c-11.3,0-22.6,0-33.9,0c0,5.8,0,11.6,0,17.4c2,0,3.9,0,5.9,0c0,19.5,0,39,0,58.5c-1.9,0-3.8,0-5.7,0c0,5.8,0,11.6,0,17.4
				C517.7,311.2,540.2,311.2,562.8,311.2z M498.1,308.1c0-3.7,0-7.5,0-11.2c1.9,0,3.8,0,5.7,0c0-21.6,0-43.1,0-64.7
				c-1.9,0-3.8,0-5.7,0c0-3.7,0-7.5,0-11.2c9.3,0,18.6,0,27.9,0c0,3.7,0,7.5,0,11.2c-2,0-3.9,0-5.9,0c0,21.6,0,43.1,0,64.7
				c9.4,0,18.9,0,28.3,0c0-2,0-3.9,0-5.9c3.8,0,7.6,0,11.3,0c0,5.7,0,11.4,0,17.1C539.2,308.1,518.6,308.1,498.1,308.1z"/>
		</g>
	</g>
	<polygon class="st4" points="248.9,529.1 223.3,522.5 203.3,539.8 201.7,513.4 179.1,499.7 203.7,490.1 209.7,464.3 226.5,484.7 
		252.8,482.5 238.6,504.8 	"/>
	<polygon class="st4" points="489.4,529.1 515,522.5 535,539.8 536.5,513.4 559.2,499.7 534.6,490.1 528.6,464.3 511.8,484.7 
		485.4,482.5 499.7,504.8 	"/>
</g>
<g id="Layer_4">
	<path class="st4" d="M140.4,417.2l-70-70c-1.5-1.5-1.5-3.8,0-5.3h0c1.5-1.5,3.8-1.5,5.3,0l70,70c1.5,1.5,1.5,3.8,0,5.3v0
		C144.3,418.6,141.9,418.6,140.4,417.2z"/>
	<path class="st4" d="M133.5,525.8l-99,0c-2.1,0-3.7-1.7-3.7-3.7v0c0-2.1,1.7-3.7,3.7-3.7h99c2.1,0,3.7,1.7,3.7,3.7l0,0
		C137.3,524.1,135.6,525.8,133.5,525.8z"/>
	<path class="st4" d="M128.2,632.2l-70,70c-1.5,1.5-3.8,1.5-5.3,0h0c-1.5-1.5-1.5-3.8,0-5.3l70-70c1.5-1.5,3.8-1.5,5.3,0l0,0
		C129.7,628.4,129.7,630.8,128.2,632.2z"/>
</g>
<g id="Layer_4_copy">
	<path class="st4" d="M609.4,417.2l70-70c1.5-1.5,1.5-3.8,0-5.3l0,0c-1.5-1.5-3.8-1.5-5.3,0l-70,70c-1.5,1.5-1.5,3.8,0,5.3v0
		C605.6,418.6,607.9,418.6,609.4,417.2z"/>
	<path class="st4" d="M616.3,525.8l99,0c2.1,0,3.7-1.7,3.7-3.7v0c0-2.1-1.7-3.7-3.7-3.7h-99c-2.1,0-3.7,1.7-3.7,3.7l0,0
		C612.6,524.1,614.2,525.8,616.3,525.8z"/>
	<path class="st4" d="M621.6,632.2l70,70c1.5,1.5,3.8,1.5,5.3,0l0,0c1.5-1.5,1.5-3.8,0-5.3l-70-70c-1.5-1.5-3.8-1.5-5.3,0h0
		C620.1,628.4,620.1,630.8,621.6,632.2z"/>
</g>
</svg>
